<svg width="32" height="32" viewBox="0 0 32 32" fill="none" xmlns="http://www.w3.org/2000/svg">
<path d="M17.3698 2.66766C18.3428 2.66392 19.3158 2.6737 20.2885 2.69699L20.5471 2.70632C20.8458 2.71699 21.1405 2.73032 21.4965 2.74632C22.9151 2.81299 23.8831 3.03699 24.7325 3.36632C25.6125 3.70499 26.3538 4.16366 27.0951 4.90499C27.773 5.57113 28.2976 6.37692 28.6325 7.26632C28.9618 8.11566 29.1858 9.08499 29.2525 10.5037C29.2685 10.8583 29.2818 11.1543 29.2925 11.453L29.3005 11.7117C29.3242 12.6839 29.3344 13.6565 29.3311 14.629L29.3325 15.6237V17.3703C29.3358 18.3433 29.3255 19.3163 29.3018 20.289L29.2938 20.5477C29.2831 20.8463 29.2698 21.141 29.2538 21.497C29.1871 22.9157 28.9605 23.8837 28.6325 24.733C28.2987 25.6233 27.7739 26.4298 27.0951 27.0957C26.4284 27.7734 25.6222 28.298 24.7325 28.633C23.8831 28.9623 22.9151 29.1863 21.4965 29.253C21.1405 29.269 20.8458 29.2823 20.5471 29.293L20.2885 29.301C19.3158 29.3247 18.3428 29.3349 17.3698 29.3317L16.3751 29.333H14.6298C13.6568 29.3363 12.6838 29.3261 11.7111 29.3023L11.4525 29.2943C11.136 29.2829 10.8195 29.2695 10.5031 29.2543C9.08447 29.1877 8.11647 28.961 7.26581 28.633C6.37605 28.2988 5.57013 27.7741 4.90447 27.0957C4.22587 26.4294 3.70077 25.6231 3.36581 24.733C3.03648 23.8837 2.81247 22.9157 2.74581 21.497C2.73096 21.1806 2.71763 20.8642 2.70581 20.5477L2.69914 20.289C2.67456 19.3163 2.66345 18.3433 2.66581 17.3703V14.629C2.66209 13.6565 2.67187 12.6839 2.69514 11.7117L2.70448 11.453C2.71514 11.1543 2.72848 10.8583 2.74448 10.5037C2.81114 9.08366 3.03514 8.11699 3.36447 7.26632C3.69964 6.37648 4.22576 5.57092 4.90581 4.90632C5.571 4.22733 6.37642 3.70175 7.26581 3.36632C8.11647 3.03699 9.08314 2.81299 10.5031 2.74632L11.4525 2.70632L11.7111 2.69966C12.6834 2.67509 13.6559 2.66397 14.6285 2.66632L17.3698 2.66766ZM15.9991 9.33432C15.1158 9.32183 14.2388 9.48502 13.4191 9.81441C12.5994 10.1438 11.8533 10.6328 11.2243 11.2531C10.5952 11.8733 10.0957 12.6124 9.75472 13.4273C9.41377 14.2423 9.2382 15.1169 9.2382 16.0003C9.2382 16.8837 9.41377 17.7583 9.75472 18.5733C10.0957 19.3883 10.5952 20.1273 11.2243 20.7476C11.8533 21.3678 12.5994 21.8568 13.4191 22.1862C14.2388 22.5156 15.1158 22.6788 15.9991 22.6663C17.7673 22.6663 19.4629 21.9639 20.7132 20.7137C21.9634 19.4635 22.6658 17.7678 22.6658 15.9997C22.6658 14.2315 21.9634 12.5359 20.7132 11.2856C19.4629 10.0354 17.7673 9.33432 15.9991 9.33432ZM15.9991 12.001C16.5305 11.9912 17.0585 12.0874 17.5522 12.2839C18.046 12.4805 18.4956 12.7734 18.8748 13.1457C19.2541 13.518 19.5554 13.9621 19.7611 14.4521C19.9668 14.9421 20.0727 15.4682 20.0728 15.9996C20.0729 16.5311 19.9671 17.0572 19.7616 17.5473C19.5561 18.0374 19.2549 18.4816 18.8758 18.854C18.4967 19.2264 18.0471 19.5195 17.5534 19.7162C17.0598 19.9129 16.5318 20.0093 16.0005 19.9997C14.9396 19.9997 13.9222 19.5782 13.172 18.8281C12.4219 18.0779 12.0005 17.0605 12.0005 15.9997C12.0005 14.9388 12.4219 13.9214 13.172 13.1712C13.9222 12.4211 14.9396 11.9997 16.0005 11.9997L15.9991 12.001ZM22.9991 7.33432C22.569 7.35154 22.1622 7.53452 21.8639 7.84495C21.5657 8.15538 21.3991 8.56917 21.3991 8.99966C21.3991 9.43014 21.5657 9.84393 21.8639 10.1544C22.1622 10.4648 22.569 10.6478 22.9991 10.665C23.4412 10.665 23.8651 10.4894 24.1777 10.1768C24.4902 9.86427 24.6658 9.44035 24.6658 8.99832C24.6658 8.5563 24.4902 8.13237 24.1777 7.81981C23.8651 7.50725 23.4412 7.33166 22.9991 7.33166V7.33432Z" fill="white"/>
</svg>
