<svg width="24" height="24" viewBox="0 0 24 24" fill="none" xmlns="http://www.w3.org/2000/svg">
<path d="M11.9996 24C11.9996 24 3.59961 13.044 3.59961 8.4C3.59961 7.2969 3.81688 6.20459 4.23902 5.18546C4.66116 4.16632 5.2799 3.24032 6.05991 2.4603C6.83992 1.68029 7.76593 1.06155 8.78507 0.639412C9.8042 0.217272 10.8965 0 11.9996 0C13.1027 0 14.195 0.217272 15.2141 0.639412C16.2333 1.06155 17.1593 1.68029 17.9393 2.4603C18.7193 3.24032 19.3381 4.16632 19.7602 5.18546C20.1823 6.20459 20.3996 7.2969 20.3996 8.4C20.3996 13.044 11.9996 24 11.9996 24ZM11.9996 10.8C12.6361 10.8 13.2466 10.5471 13.6967 10.0971C14.1468 9.64697 14.3996 9.03652 14.3996 8.4C14.3996 7.76348 14.1468 7.15303 13.6967 6.70294C13.2466 6.25286 12.6361 6 11.9996 6C11.3631 6 10.7526 6.25286 10.3026 6.70294C9.85247 7.15303 9.59961 7.76348 9.59961 8.4C9.59961 9.03652 9.85247 9.64697 10.3026 10.0971C10.7526 10.5471 11.3631 10.8 11.9996 10.8Z" fill="white"/>
</svg>
