<svg width="32" height="32" viewBox="0 0 32 32" fill="none" xmlns="http://www.w3.org/2000/svg">
<path d="M8 5.42899C8 4.59545 8.33112 3.79605 8.92052 3.20665C9.50992 2.61725 10.3093 2.28613 11.1429 2.28613H20.8571C21.6907 2.28613 22.4901 2.61725 23.0795 3.20665C23.6689 3.79605 24 4.59545 24 5.42899V26.5718C24 27.4054 23.6689 28.2048 23.0795 28.7942C22.4901 29.3836 21.6907 29.7147 20.8571 29.7147H11.1429C10.3093 29.7147 9.50992 29.3836 8.92052 28.7942C8.33112 28.2048 8 27.4054 8 26.5718V5.42899ZM14 24.0004C13.7727 24.0004 13.5547 24.0907 13.3939 24.2515C13.2332 24.4122 13.1429 24.6302 13.1429 24.8576C13.1429 25.0849 13.2332 25.3029 13.3939 25.4637C13.5547 25.6244 13.7727 25.7147 14 25.7147H18C18.2273 25.7147 18.4453 25.6244 18.6061 25.4637C18.7668 25.3029 18.8571 25.0849 18.8571 24.8576C18.8571 24.6302 18.7668 24.4122 18.6061 24.2515C18.4453 24.0907 18.2273 24.0004 18 24.0004H14Z" fill="white"/>
</svg>
