<svg width="768" height="822" viewBox="0 0 768 822" fill="none" xmlns="http://www.w3.org/2000/svg">
<g opacity="0.2" clip-path="url(#clip0_108_477)">
<path d="M-526.958 376.082L-349.102 569.504C-252.795 674.24 -78.3208 625.252 -50.6058 485.693L-13.8703 300.712C8.80449 186.533 165.989 171.522 209.864 279.345V279.345C256.802 394.693 427.425 367.086 435.593 242.822L442.883 131.908C451.197 5.42968 622.765 -26.4172 675.915 88.6527V88.6527C727.173 199.628 891.572 175.019 908.088 53.8984L1001.43 -630.652" stroke="#1B011B" stroke-width="2"/>
<path d="M-362.261 747.396L-184.406 940.817C-88.0987 1045.55 86.3755 996.565 114.09 857.007L150.826 672.025C173.501 557.846 330.685 542.835 374.56 650.658V650.658C421.498 766.006 592.121 738.399 600.289 614.135L607.579 503.221C615.893 376.743 787.461 344.896 840.611 459.966V459.966C891.87 570.942 1056.27 546.333 1072.78 425.212L1166.13 -259.339" stroke="#1B011B" stroke-width="2"/>
<path d="M-519.115 393.761L-341.259 587.183C-244.952 691.919 -70.478 642.931 -42.7631 503.372L-6.02749 318.391C16.6473 204.212 173.831 189.201 217.707 297.024V297.024C264.644 412.372 435.268 384.765 443.436 260.501L450.726 149.587C459.039 23.1085 630.608 -8.73837 683.757 106.331V106.331C735.016 217.307 899.415 192.698 915.931 71.5773L1009.28 -612.973" stroke="#1B011B" stroke-width="2"/>
<path d="M-511.273 411.445L-333.418 604.867C-237.111 709.603 -62.6367 660.615 -34.9218 521.056L1.81382 336.075C24.4886 221.896 181.673 206.885 225.548 314.708V314.708C272.486 430.056 443.109 402.449 451.277 278.185L458.567 167.271C466.881 40.7926 638.449 8.94571 691.599 124.016V124.016C742.857 234.991 907.256 210.382 923.772 89.2613L1017.12 -595.289" stroke="#1B011B" stroke-width="2"/>
<path d="M-503.43 429.127L-325.575 622.549C-229.268 727.285 -54.7935 678.297 -27.0785 538.738L9.65708 353.757C32.3318 239.578 189.516 224.567 233.391 332.39V332.39C280.329 447.738 450.953 420.131 459.12 295.867L466.411 184.953C474.724 58.4747 646.292 26.6278 699.442 141.698V141.698C750.701 252.674 915.099 228.064 931.616 106.943L1024.96 -577.607" stroke="#1B011B" stroke-width="2"/>
<path d="M-495.587 446.81L-317.732 640.231C-221.425 744.967 -46.9507 695.979 -19.2357 556.421L17.4999 371.439C40.1746 257.261 197.359 242.249 241.234 350.072V350.072C288.172 465.42 458.795 437.813 466.963 313.549L474.253 202.636C482.567 76.1569 654.135 44.31 707.285 159.38V159.38C758.544 270.356 922.942 245.747 939.458 124.626L1032.8 -559.925" stroke="#1B011B" stroke-width="2"/>
<path d="M-487.744 464.49L-309.889 657.911C-213.582 762.647 -39.1074 713.659 -11.3925 574.101L25.3431 389.119C48.0179 274.941 205.202 259.929 249.077 367.752V367.752C296.015 483.1 466.639 455.493 474.806 331.229L482.097 220.316C490.41 93.8369 661.978 61.99 715.128 177.06V177.06C766.387 288.036 930.785 263.427 947.302 142.306L1040.65 -542.245" stroke="#1B011B" stroke-width="2"/>
<path d="M-479.902 482.172L-302.047 675.594C-205.74 780.33 -31.2656 731.341 -3.55066 591.783L33.1849 406.801C55.8597 292.623 213.044 277.612 256.919 385.435V385.435C303.857 500.782 474.48 473.175 482.648 348.911L489.938 237.998C498.252 111.519 669.82 79.6723 722.97 194.742V194.742C774.229 305.718 938.627 281.109 955.143 159.988L1048.49 -524.563" stroke="#1B011B" stroke-width="2"/>
<path d="M-472.061 499.852L-294.205 693.273C-197.898 798.009 -23.4238 749.021 4.29114 609.463L41.0267 424.481C63.7015 310.302 220.885 295.291 264.761 403.114V403.114C311.699 518.462 482.322 490.855 490.49 366.591L497.78 255.678C506.094 129.199 677.662 97.352 730.812 212.422V212.422C782.07 323.398 946.469 298.789 962.985 177.668L1056.33 -506.883" stroke="#1B011B" stroke-width="2"/>
<path d="M-464.217 517.534L-286.362 710.956C-190.055 815.692 -15.5806 766.704 12.1344 627.145L48.87 442.164C71.5447 327.985 228.729 312.974 272.604 420.797V420.797C319.542 536.145 490.165 508.538 498.333 384.274L505.623 273.36C513.937 146.882 685.505 115.035 738.655 230.105V230.105C789.914 341.08 954.312 316.471 970.828 195.35L1064.17 -489.2" stroke="#1B011B" stroke-width="2"/>
<path d="M-456.373 535.217L-278.518 728.639C-182.211 833.375 -7.73633 784.387 19.9786 644.828L56.7142 459.847C79.389 345.668 236.573 330.657 280.449 438.48V438.48C327.386 553.828 498.01 526.221 506.177 401.957L513.468 291.043C521.781 164.564 693.349 132.718 746.499 247.787V247.787C797.758 358.763 962.157 334.154 978.673 213.033L1072.02 -471.517" stroke="#1B011B" stroke-width="2"/>
<path d="M-448.53 552.896L-270.675 746.318C-174.368 851.054 0.106442 802.066 27.8214 662.507L64.557 477.526C87.2317 363.347 244.416 348.336 288.291 456.159V456.159C335.229 571.507 505.852 543.9 514.02 419.636L521.31 308.722C529.624 182.244 701.192 150.397 754.342 265.467V265.467C805.601 376.442 969.999 351.833 986.515 230.712L1079.86 -453.838" stroke="#1B011B" stroke-width="2"/>
<path d="M-440.689 570.581L-262.834 764.002C-166.526 868.738 7.94775 819.75 35.6627 680.192L72.3983 495.21C95.073 381.031 252.257 366.02 296.133 473.843V473.843C343.07 589.191 513.694 561.584 521.861 437.32L529.152 326.407C537.465 199.928 709.033 168.081 762.183 283.151V283.151C813.442 394.127 977.841 369.518 994.357 248.397L1087.7 -436.154" stroke="#1B011B" stroke-width="2"/>
<path d="M-432.846 588.261L-254.99 781.683C-158.683 886.419 15.791 837.431 43.506 697.872L80.2416 512.891C102.916 398.712 260.1 383.701 303.976 491.524V491.524C350.913 606.872 521.537 579.264 529.705 455.001L536.995 344.087C545.308 217.608 716.877 185.762 770.026 300.831V300.831C821.285 411.807 985.684 387.198 1002.2 266.077L1095.55 -418.473" stroke="#1B011B" stroke-width="2"/>
<path d="M-425.003 605.942L-247.148 799.364C-150.841 904.1 23.6333 855.111 51.3483 715.553L88.0838 530.571C110.759 416.393 267.943 401.382 311.818 509.205V509.205C358.756 624.552 529.379 596.945 537.547 472.681L544.837 361.768C553.151 235.289 724.719 203.442 777.869 318.512V318.512C829.127 429.488 993.526 404.879 1010.04 283.758L1103.39 -400.793" stroke="#1B011B" stroke-width="2"/>
<path d="M-417.16 623.623L-239.304 817.045C-142.997 921.781 31.477 872.792 59.192 733.234L95.9276 548.252C118.602 434.074 275.786 419.063 319.662 526.886V526.886C366.6 642.233 537.223 614.626 545.391 490.362L552.681 379.449C560.994 252.97 732.563 221.123 785.713 336.193V336.193C836.971 447.169 1001.37 422.56 1017.89 301.439L1111.23 -383.112" stroke="#1B011B" stroke-width="2"/>
<path d="M-409.318 641.304L-231.463 834.726C-135.156 939.462 39.3184 890.473 67.0333 750.915L103.769 565.933C126.444 451.755 283.628 436.744 327.503 544.567V544.567C374.441 659.914 545.064 632.307 553.232 508.043L560.522 397.13C568.836 270.651 740.404 238.804 793.554 353.874V353.874C844.813 464.85 1009.21 440.241 1025.73 319.12L1119.07 -365.431" stroke="#1B011B" stroke-width="2"/>
<path d="M-401.475 658.987L-223.619 852.409C-127.312 957.145 47.1621 908.157 74.8771 768.598L111.613 583.616C134.287 469.438 291.471 454.427 335.347 562.25V562.25C382.285 677.598 552.908 649.99 561.076 525.727L568.366 414.813C576.679 288.334 748.248 256.487 801.398 371.557V371.557C852.656 482.533 1017.05 457.924 1033.57 336.803L1126.92 -347.747" stroke="#1B011B" stroke-width="2"/>
<path d="M-393.631 676.668L-215.776 870.09C-119.469 974.826 55.0054 925.838 82.7203 786.279L119.456 601.298C142.131 487.119 299.315 472.108 343.19 579.931V579.931C390.128 695.279 560.751 667.672 568.919 543.408L576.209 432.494C584.523 306.015 756.091 274.169 809.241 389.238V389.238C860.5 500.214 1024.9 475.605 1041.41 354.484L1134.76 -330.066" stroke="#1B011B" stroke-width="2"/>
<path d="M-385.789 694.351L-207.934 887.773C-111.627 992.509 62.8477 943.521 90.5626 803.962L127.298 618.98C149.973 504.802 307.157 489.791 351.033 597.614V597.614C397.97 712.962 568.594 685.354 576.761 561.091L584.052 450.177C592.365 323.698 763.933 291.851 817.083 406.921V406.921C868.342 517.897 1032.74 493.288 1049.26 372.167L1142.6 -312.383" stroke="#1B011B" stroke-width="2"/>
<path d="M-377.946 712.029L-200.09 905.451C-103.783 1010.19 70.6909 961.199 98.4059 821.64L135.141 636.659C157.816 522.48 315 507.469 358.876 615.292V615.292C405.813 730.64 576.437 703.033 584.605 578.769L591.895 467.855C600.208 341.377 771.777 309.53 824.926 424.6V424.6C876.185 535.575 1040.58 510.966 1057.1 389.845L1150.45 -294.705" stroke="#1B011B" stroke-width="2"/>
<path d="M-370.105 729.713L-192.25 923.135C-95.943 1027.87 78.5312 978.883 106.246 839.324L142.982 654.343C165.657 540.164 322.841 525.153 366.716 632.976V632.976C413.654 748.324 584.277 720.717 592.445 596.453L599.735 485.539C608.049 359.06 779.617 327.214 832.767 442.283V442.283C884.025 553.259 1048.42 528.65 1064.94 407.529L1158.29 -277.021" stroke="#1B011B" stroke-width="2"/>
</g>
<defs>
<clipPath id="clip0_108_477">
<rect width="768" height="822" fill="white" transform="matrix(1 0 0 -1 0 822)"/>
</clipPath>
</defs>
</svg>
