<svg width="998" height="577" viewBox="0 0 998 577" fill="none" xmlns="http://www.w3.org/2000/svg">
<path d="M27.1257 233.643L185.297 324.599C234.377 352.823 296.816 339.815 330.543 294.339L342.976 277.575C379.69 228.072 453.056 225.992 492.515 273.336L515.336 300.716C553.191 346.135 626.217 332.262 644.78 276.125V276.125C662.685 221.976 731.922 206.569 771.1 248.016L800.334 278.944C847.408 328.744 929.385 318.052 962.111 257.845L1027.09 138.304" stroke="#FF0088" stroke-opacity="0.25" stroke-width="2"/>
<path d="M118.946 334.721L277.117 425.677C326.198 453.901 388.636 440.893 422.363 395.418L434.796 378.653C471.51 329.15 544.876 327.071 584.335 374.414L607.156 401.794C645.011 447.213 718.037 433.34 736.6 377.204V377.204C754.506 323.054 823.742 307.647 862.92 349.094L892.155 380.022C939.228 429.822 1021.21 419.13 1053.93 358.923L1118.91 239.382" stroke="#FF0088" stroke-opacity="0.25" stroke-width="2"/>
<path d="M31.4968 238.456L189.668 329.412C238.748 357.635 301.187 344.627 334.914 299.152L347.347 282.387C384.061 232.885 457.427 230.805 496.886 278.148L519.707 305.529C557.562 350.947 630.588 337.074 649.151 280.938V280.938C667.056 226.788 736.293 211.382 775.471 252.829L804.706 283.757C851.779 333.556 933.756 322.865 966.482 262.657L1031.46 143.117" stroke="#FF0088" stroke-opacity="0.25" stroke-width="2"/>
<path d="M35.8689 243.27L194.04 334.226C243.12 362.45 305.559 349.442 339.286 303.966L351.719 287.202C388.433 237.699 461.799 235.619 501.258 282.963L524.079 310.343C561.934 355.762 634.96 341.889 653.523 285.752V285.752C671.428 231.603 740.665 216.196 779.843 257.643L809.078 288.571C856.151 338.371 938.128 327.679 970.854 267.472L1035.83 147.931" stroke="#FF0088" stroke-opacity="0.25" stroke-width="2"/>
<path d="M40.2419 248.085L198.413 339.04C247.493 367.264 309.932 354.256 343.659 308.781L356.092 292.016C392.806 242.514 466.172 240.434 505.631 287.777L528.452 315.157C566.307 360.576 639.333 346.703 657.896 290.567V290.567C675.802 236.417 745.038 221.011 784.216 262.458L813.451 293.386C860.524 343.185 942.501 332.494 975.227 272.286L1040.2 152.745" stroke="#FF0088" stroke-opacity="0.25" stroke-width="2"/>
<path d="M44.614 252.897L202.785 343.853C251.866 372.077 314.304 359.069 348.031 313.593L360.464 296.829C397.178 247.326 470.544 245.246 510.003 292.59L532.824 319.97C570.679 365.389 643.705 351.516 662.268 295.379V295.379C680.174 241.23 749.41 225.823 788.588 267.27L817.823 298.198C864.896 347.998 946.873 337.306 979.599 277.099L1044.58 157.558" stroke="#FF0088" stroke-opacity="0.25" stroke-width="2"/>
<path d="M48.9861 257.708L207.157 348.664C256.238 376.887 318.676 363.879 352.403 318.404L364.836 301.639C401.55 252.137 474.916 250.057 514.375 297.4L537.196 324.781C575.051 370.199 648.077 356.326 666.64 300.19V300.19C684.546 246.04 753.782 230.634 792.96 272.081L822.195 303.009C869.268 352.808 951.245 342.117 983.971 281.909L1048.95 162.369" stroke="#FF0088" stroke-opacity="0.25" stroke-width="2"/>
<path d="M53.3601 262.524L211.531 353.48C260.612 381.704 323.05 368.696 356.777 323.22L369.21 306.456C405.924 256.953 479.29 254.873 518.749 302.217L541.57 329.597C579.425 375.016 652.451 361.143 671.014 305.006V305.006C688.92 250.857 758.156 235.45 797.334 276.897L826.569 307.825C873.642 357.625 955.619 346.933 988.345 286.726L1053.32 167.185" stroke="#FF0088" stroke-opacity="0.25" stroke-width="2"/>
<path d="M57.7312 267.337L215.902 358.292C264.983 386.516 327.421 373.508 361.148 328.033L373.582 311.268C410.295 261.766 483.661 259.686 523.121 307.029L545.941 334.409C583.796 379.828 656.823 365.955 675.385 309.819V309.819C693.291 255.669 762.527 240.263 801.705 281.71L830.94 312.638C878.013 362.437 959.99 351.746 992.717 291.538L1057.69 171.997" stroke="#FF0088" stroke-opacity="0.25" stroke-width="2"/>
<path d="M62.1043 272.149L220.275 363.105C269.356 391.329 331.794 378.321 365.521 332.845L377.955 316.081C414.668 266.578 488.035 264.498 527.494 311.842L550.314 339.222C588.169 384.641 661.196 370.768 679.758 314.631V314.631C697.664 260.482 766.9 245.075 806.078 286.522L835.313 317.45C882.386 367.25 964.364 356.558 997.09 296.351L1062.07 176.81" stroke="#FF0088" stroke-opacity="0.25" stroke-width="2"/>
<path d="M66.4773 276.964L224.648 367.919C273.729 396.143 336.167 383.135 369.894 337.66L382.328 320.895C419.041 271.393 492.408 269.313 531.867 316.656L554.687 344.036C592.542 389.455 665.569 375.582 684.131 319.446V319.446C702.037 265.296 771.273 249.89 810.451 291.337L839.686 322.264C886.759 372.064 968.737 361.373 1001.46 301.165L1066.44 181.624" stroke="#FF0088" stroke-opacity="0.25" stroke-width="2"/>
<path d="M70.8494 281.776L229.02 372.732C278.101 400.956 340.54 387.948 374.266 342.472L386.7 325.708C423.413 276.205 496.78 274.125 536.239 321.468L559.059 348.849C596.915 394.268 669.941 380.395 688.503 324.258V324.258C706.409 270.109 775.645 254.702 814.823 296.149L844.058 327.077C891.132 376.877 973.109 366.185 1005.83 305.978L1070.81 186.437" stroke="#FF0088" stroke-opacity="0.25" stroke-width="2"/>
<path d="M75.2214 286.589L233.392 377.544C282.473 405.768 344.912 392.76 378.638 347.285L391.072 330.52C427.785 281.018 501.152 278.938 540.611 326.281L563.431 353.661C601.287 399.08 674.313 385.207 692.875 329.071V329.071C710.781 274.921 780.017 259.515 819.196 300.962L848.43 331.889C895.504 381.689 977.481 370.998 1010.21 310.79L1075.18 191.249" stroke="#FF0088" stroke-opacity="0.25" stroke-width="2"/>
<path d="M79.5945 291.403L237.765 382.359C286.846 410.583 349.285 397.574 383.011 352.099L395.445 335.335C432.158 285.832 505.525 283.752 544.984 331.095L567.805 358.476C605.66 403.895 678.686 390.022 697.248 333.885V333.885C715.154 279.736 784.39 264.329 823.569 305.776L852.803 336.704C899.877 386.504 981.854 375.812 1014.58 315.605L1079.56 196.064" stroke="#FF0088" stroke-opacity="0.25" stroke-width="2"/>
<path d="M83.9656 296.216L242.136 387.171C291.217 415.395 353.656 402.387 387.382 356.912L399.816 340.147C436.529 290.645 509.896 288.565 549.355 335.908L572.176 363.288C610.031 408.707 683.057 394.834 701.62 338.698V338.698C719.525 284.548 788.762 269.141 827.94 310.589L857.174 341.516C904.248 391.316 986.225 380.624 1018.95 320.417L1083.93 200.876" stroke="#FF0088" stroke-opacity="0.25" stroke-width="2"/>
<path d="M88.3386 301.028L246.51 391.984C295.59 420.208 358.029 407.199 391.756 361.724L404.189 344.96C440.903 295.457 514.269 293.377 553.728 340.72L576.549 368.101C614.404 413.52 687.43 399.647 705.993 343.51V343.51C723.898 289.361 793.135 273.954 832.313 315.401L861.547 346.329C908.621 396.129 990.598 385.437 1023.32 325.23L1088.3 205.689" stroke="#FF0088" stroke-opacity="0.25" stroke-width="2"/>
<path d="M92.7107 305.843L250.882 396.798C299.962 425.022 362.401 412.014 396.128 366.539L408.561 349.774C445.275 300.271 518.641 298.192 558.1 345.535L580.921 372.915C618.776 418.334 691.802 404.461 710.365 348.325V348.325C728.27 294.175 797.507 278.768 836.685 320.216L865.919 351.143C912.993 400.943 994.97 390.251 1027.7 330.044L1092.67 210.503" stroke="#FF0088" stroke-opacity="0.25" stroke-width="2"/>
<path d="M97.0837 310.655L255.255 401.611C304.335 429.834 366.774 416.826 400.501 371.351L412.934 354.587C449.648 305.084 523.014 303.004 562.473 350.347L585.294 377.728C623.149 423.147 696.175 409.274 714.738 353.137V353.137C732.643 298.988 801.88 283.581 841.058 325.028L870.292 355.956C917.366 405.756 999.343 395.064 1032.07 334.857L1097.05 215.316" stroke="#FF0088" stroke-opacity="0.25" stroke-width="2"/>
<path d="M101.457 315.468L259.628 406.423C308.708 434.647 371.147 421.639 404.874 376.164L417.307 359.399C454.021 309.896 527.387 307.817 566.846 355.16L589.667 382.54C627.522 427.959 700.548 414.086 719.111 357.95V357.95C737.016 303.8 806.253 288.393 845.431 329.841L874.666 360.768C921.739 410.568 1003.72 399.876 1036.44 339.669L1101.42 220.128" stroke="#FF0088" stroke-opacity="0.25" stroke-width="2"/>
<path d="M105.828 320.284L263.999 411.24C313.079 439.463 375.518 426.455 409.245 380.98L421.678 364.215C458.392 314.713 531.758 312.633 571.217 359.976L594.038 387.357C631.893 432.775 704.919 418.903 723.482 362.766V362.766C741.387 308.617 810.624 293.21 849.802 334.657L879.037 365.585C926.11 415.385 1008.09 404.693 1040.81 344.485L1105.79 224.945" stroke="#FF0088" stroke-opacity="0.25" stroke-width="2"/>
<path d="M110.201 325.096L268.372 416.052C317.452 444.276 379.891 431.268 413.618 385.793L426.051 369.028C462.765 319.525 536.131 317.446 575.59 364.789L598.411 392.169C636.266 437.588 709.292 423.715 727.855 367.579V367.579C745.761 313.429 814.997 298.022 854.175 339.469L883.41 370.397C930.483 420.197 1012.46 409.505 1045.19 349.298L1110.16 229.757" stroke="#FF0088" stroke-opacity="0.25" stroke-width="2"/>
<path d="M114.573 329.907L272.744 420.863C321.825 449.086 384.263 436.078 417.99 390.603L430.423 373.839C467.137 324.336 540.503 322.256 579.962 369.599L602.783 396.98C640.638 442.398 713.664 428.526 732.227 372.389V372.389C750.133 318.24 819.369 302.833 858.547 344.28L887.782 375.208C934.855 425.008 1016.83 414.316 1049.56 354.109L1114.54 234.568" stroke="#FF0088" stroke-opacity="0.25" stroke-width="2"/>
</svg>
