<svg width="1600" height="577" viewBox="0 0 1600 577" fill="none" xmlns="http://www.w3.org/2000/svg">
<path d="M629.126 233.643L787.297 324.599C836.377 352.823 898.816 339.815 932.543 294.339L944.976 277.575C981.69 228.072 1055.06 225.992 1094.52 273.336L1117.34 300.716C1155.19 346.135 1228.22 332.262 1246.78 276.125V276.125C1264.69 221.976 1333.92 206.569 1373.1 248.016L1402.33 278.944C1449.41 328.744 1531.39 318.052 1564.11 257.845L1629.09 138.304" stroke="#FF0088" stroke-opacity="0.25" stroke-width="2"/>
<path d="M720.946 334.721L879.117 425.677C928.198 453.901 990.636 440.893 1024.36 395.418L1036.8 378.653C1073.51 329.15 1146.88 327.071 1186.34 374.414L1209.16 401.794C1247.01 447.213 1320.04 433.34 1338.6 377.204V377.204C1356.51 323.054 1425.74 307.647 1464.92 349.094L1494.15 380.022C1541.23 429.822 1623.21 419.13 1655.93 358.923L1720.91 239.382" stroke="#FF0088" stroke-opacity="0.25" stroke-width="2"/>
<path d="M633.497 238.456L791.668 329.412C840.748 357.635 903.187 344.627 936.914 299.152L949.347 282.387C986.061 232.885 1059.43 230.805 1098.89 278.148L1121.71 305.529C1159.56 350.947 1232.59 337.074 1251.15 280.938V280.938C1269.06 226.788 1338.29 211.382 1377.47 252.829L1406.71 283.757C1453.78 333.556 1535.76 322.865 1568.48 262.657L1633.46 143.117" stroke="#FF0088" stroke-opacity="0.25" stroke-width="2"/>
<path d="M637.869 243.27L796.04 334.226C845.12 362.45 907.559 349.442 941.286 303.966L953.719 287.202C990.433 237.699 1063.8 235.619 1103.26 282.963L1126.08 310.343C1163.93 355.762 1236.96 341.889 1255.52 285.752V285.752C1273.43 231.603 1342.66 216.196 1381.84 257.643L1411.08 288.571C1458.15 338.371 1540.13 327.679 1572.85 267.472L1637.83 147.931" stroke="#FF0088" stroke-opacity="0.25" stroke-width="2"/>
<path d="M642.242 248.085L800.413 339.04C849.493 367.264 911.932 354.256 945.659 308.781L958.092 292.016C994.806 242.514 1068.17 240.434 1107.63 287.777L1130.45 315.157C1168.31 360.576 1241.33 346.703 1259.9 290.567V290.567C1277.8 236.417 1347.04 221.011 1386.22 262.458L1415.45 293.386C1462.52 343.185 1544.5 332.494 1577.23 272.286L1642.2 152.745" stroke="#FF0088" stroke-opacity="0.25" stroke-width="2"/>
<path d="M646.614 252.897L804.785 343.853C853.866 372.077 916.304 359.069 950.031 313.593L962.464 296.829C999.178 247.326 1072.54 245.246 1112 292.59L1134.82 319.97C1172.68 365.389 1245.71 351.516 1264.27 295.379V295.379C1282.17 241.23 1351.41 225.823 1390.59 267.27L1419.82 298.198C1466.9 347.998 1548.87 337.306 1581.6 277.099L1646.58 157.558" stroke="#FF0088" stroke-opacity="0.25" stroke-width="2"/>
<path d="M650.986 257.708L809.157 348.664C858.238 376.887 920.676 363.879 954.403 318.404L966.836 301.639C1003.55 252.137 1076.92 250.057 1116.38 297.4L1139.2 324.781C1177.05 370.199 1250.08 356.326 1268.64 300.19V300.19C1286.55 246.04 1355.78 230.634 1394.96 272.081L1424.19 303.009C1471.27 352.808 1553.25 342.117 1585.97 281.909L1650.95 162.369" stroke="#FF0088" stroke-opacity="0.25" stroke-width="2"/>
<path d="M655.36 262.524L813.531 353.48C862.612 381.704 925.05 368.696 958.777 323.22L971.21 306.456C1007.92 256.953 1081.29 254.873 1120.75 302.217L1143.57 329.597C1181.43 375.016 1254.45 361.143 1273.01 305.006V305.006C1290.92 250.857 1360.16 235.45 1399.33 276.897L1428.57 307.825C1475.64 357.625 1557.62 346.933 1590.35 286.726L1655.32 167.185" stroke="#FF0088" stroke-opacity="0.25" stroke-width="2"/>
<path d="M659.731 267.337L817.902 358.292C866.983 386.516 929.421 373.508 963.148 328.033L975.582 311.268C1012.3 261.766 1085.66 259.686 1125.12 307.029L1147.94 334.409C1185.8 379.828 1258.82 365.955 1277.39 309.819V309.819C1295.29 255.669 1364.53 240.263 1403.71 281.71L1432.94 312.638C1480.01 362.437 1561.99 351.746 1594.72 291.538L1659.69 171.997" stroke="#FF0088" stroke-opacity="0.25" stroke-width="2"/>
<path d="M664.104 272.149L822.275 363.105C871.356 391.329 933.794 378.321 967.521 332.845L979.955 316.081C1016.67 266.578 1090.03 264.498 1129.49 311.842L1152.31 339.222C1190.17 384.641 1263.2 370.768 1281.76 314.631V314.631C1299.66 260.482 1368.9 245.075 1408.08 286.522L1437.31 317.45C1484.39 367.25 1566.36 356.558 1599.09 296.351L1664.07 176.81" stroke="#FF0088" stroke-opacity="0.25" stroke-width="2"/>
<path d="M668.477 276.964L826.648 367.919C875.729 396.143 938.167 383.135 971.894 337.66L984.328 320.895C1021.04 271.393 1094.41 269.313 1133.87 316.656L1156.69 344.036C1194.54 389.455 1267.57 375.582 1286.13 319.446V319.446C1304.04 265.296 1373.27 249.89 1412.45 291.337L1441.69 322.264C1488.76 372.064 1570.74 361.373 1603.46 301.165L1668.44 181.624" stroke="#FF0088" stroke-opacity="0.25" stroke-width="2"/>
<path d="M672.849 281.776L831.02 372.732C880.101 400.956 942.54 387.948 976.266 342.472L988.7 325.708C1025.41 276.205 1098.78 274.125 1138.24 321.468L1161.06 348.849C1198.91 394.268 1271.94 380.395 1290.5 324.258V324.258C1308.41 270.109 1377.65 254.702 1416.82 296.149L1446.06 327.077C1493.13 376.877 1575.11 366.185 1607.83 305.978L1672.81 186.437" stroke="#FF0088" stroke-opacity="0.25" stroke-width="2"/>
<path d="M677.221 286.589L835.392 377.544C884.473 405.768 946.912 392.76 980.638 347.285L993.072 330.52C1029.79 281.018 1103.15 278.938 1142.61 326.281L1165.43 353.661C1203.29 399.08 1276.31 385.207 1294.88 329.071V329.071C1312.78 274.921 1382.02 259.515 1421.2 300.962L1450.43 331.889C1497.5 381.689 1579.48 370.998 1612.21 310.79L1677.18 191.249" stroke="#FF0088" stroke-opacity="0.25" stroke-width="2"/>
<path d="M681.594 291.403L839.765 382.359C888.846 410.583 951.285 397.574 985.011 352.099L997.445 335.335C1034.16 285.832 1107.52 283.752 1146.98 331.095L1169.8 358.476C1207.66 403.895 1280.69 390.022 1299.25 333.885V333.885C1317.15 279.736 1386.39 264.329 1425.57 305.776L1454.8 336.704C1501.88 386.504 1583.85 375.812 1616.58 315.605L1681.56 196.064" stroke="#FF0088" stroke-opacity="0.25" stroke-width="2"/>
<path d="M685.966 296.216L844.136 387.171C893.217 415.395 955.656 402.387 989.382 356.912L1001.82 340.147C1038.53 290.645 1111.9 288.565 1151.35 335.908L1174.18 363.288C1212.03 408.707 1285.06 394.834 1303.62 338.698V338.698C1321.53 284.548 1390.76 269.141 1429.94 310.589L1459.17 341.516C1506.25 391.316 1588.22 380.624 1620.95 320.417L1685.93 200.876" stroke="#FF0088" stroke-opacity="0.25" stroke-width="2"/>
<path d="M690.339 301.028L848.51 391.984C897.59 420.208 960.029 407.199 993.756 361.724L1006.19 344.96C1042.9 295.457 1116.27 293.377 1155.73 340.72L1178.55 368.101C1216.4 413.52 1289.43 399.647 1307.99 343.51V343.51C1325.9 289.361 1395.13 273.954 1434.31 315.401L1463.55 346.329C1510.62 396.129 1592.6 385.437 1625.32 325.23L1690.3 205.689" stroke="#FF0088" stroke-opacity="0.25" stroke-width="2"/>
<path d="M694.711 305.843L852.882 396.798C901.962 425.022 964.401 412.014 998.128 366.539L1010.56 349.774C1047.27 300.271 1120.64 298.192 1160.1 345.535L1182.92 372.915C1220.78 418.334 1293.8 404.461 1312.36 348.325V348.325C1330.27 294.175 1399.51 278.768 1438.68 320.216L1467.92 351.143C1514.99 400.943 1596.97 390.251 1629.7 330.044L1694.67 210.503" stroke="#FF0088" stroke-opacity="0.25" stroke-width="2"/>
<path d="M699.084 310.655L857.255 401.611C906.335 429.834 968.774 416.826 1002.5 371.351L1014.93 354.587C1051.65 305.084 1125.01 303.004 1164.47 350.347L1187.29 377.728C1225.15 423.147 1298.18 409.274 1316.74 353.137V353.137C1334.64 298.988 1403.88 283.581 1443.06 325.028L1472.29 355.956C1519.37 405.756 1601.34 395.064 1634.07 334.857L1699.05 215.316" stroke="#FF0088" stroke-opacity="0.25" stroke-width="2"/>
<path d="M703.457 315.468L861.628 406.423C910.708 434.647 973.147 421.639 1006.87 376.164L1019.31 359.399C1056.02 309.896 1129.39 307.817 1168.85 355.16L1191.67 382.54C1229.52 427.959 1302.55 414.086 1321.11 357.95V357.95C1339.02 303.8 1408.25 288.393 1447.43 329.841L1476.67 360.768C1523.74 410.568 1605.72 399.876 1638.44 339.669L1703.42 220.128" stroke="#FF0088" stroke-opacity="0.25" stroke-width="2"/>
<path d="M707.828 320.284L865.999 411.24C915.079 439.463 977.518 426.455 1011.24 380.98L1023.68 364.215C1060.39 314.713 1133.76 312.633 1173.22 359.976L1196.04 387.357C1233.89 432.775 1306.92 418.903 1325.48 362.766V362.766C1343.39 308.617 1412.62 293.21 1451.8 334.657L1481.04 365.585C1528.11 415.385 1610.09 404.693 1642.81 344.485L1707.79 224.945" stroke="#FF0088" stroke-opacity="0.25" stroke-width="2"/>
<path d="M712.201 325.096L870.372 416.052C919.452 444.276 981.891 431.268 1015.62 385.793L1028.05 369.028C1064.76 319.525 1138.13 317.446 1177.59 364.789L1200.41 392.169C1238.27 437.588 1311.29 423.715 1329.85 367.579V367.579C1347.76 313.429 1417 298.022 1456.17 339.469L1485.41 370.397C1532.48 420.197 1614.46 409.505 1647.19 349.298L1712.16 229.757" stroke="#FF0088" stroke-opacity="0.25" stroke-width="2"/>
<path d="M716.573 329.907L874.744 420.863C923.825 449.086 986.263 436.078 1019.99 390.603L1032.42 373.839C1069.14 324.336 1142.5 322.256 1181.96 369.599L1204.78 396.98C1242.64 442.398 1315.66 428.526 1334.23 372.389V372.389C1352.13 318.24 1421.37 302.833 1460.55 344.28L1489.78 375.208C1536.86 425.008 1618.83 414.316 1651.56 354.109L1716.54 234.568" stroke="#FF0088" stroke-opacity="0.25" stroke-width="2"/>
<path d="M773.114 233.643L614.943 324.599C565.862 352.823 503.423 339.815 469.697 294.339L457.263 277.575C420.55 228.072 347.183 225.992 307.724 273.336L284.903 300.716C247.048 346.135 174.022 332.262 155.46 276.125V276.125C137.554 221.976 68.3175 206.569 29.1395 248.016L-0.0951932 278.944C-47.1686 328.744 -129.146 318.052 -161.872 257.845L-226.849 138.304" stroke="#FF0088" stroke-opacity="0.25" stroke-width="2"/>
<path d="M681.293 334.721L523.122 425.677C474.042 453.901 411.603 440.893 377.876 395.418L365.443 378.653C328.729 329.15 255.363 327.071 215.904 374.414L193.083 401.794C155.228 447.213 82.2019 433.34 63.6392 377.204V377.204C45.7336 323.054 -23.5028 307.647 -62.6809 349.094L-91.9155 380.022C-138.989 429.822 -220.966 419.13 -253.692 358.923L-318.669 239.382" stroke="#FF0088" stroke-opacity="0.25" stroke-width="2"/>
<path d="M768.742 238.456L610.572 329.412C561.491 357.635 499.052 344.627 465.326 299.152L452.892 282.387C416.179 232.885 342.812 230.805 303.353 278.148L280.532 305.529C242.677 350.947 169.651 337.074 151.088 280.938V280.938C133.183 226.788 63.9464 211.382 24.7684 252.829L-4.46629 283.757C-51.5397 333.556 -133.517 322.865 -166.243 262.657L-231.22 143.117" stroke="#FF0088" stroke-opacity="0.25" stroke-width="2"/>
<path d="M764.37 243.27L606.199 334.226C557.119 362.45 494.68 349.442 460.953 303.966L448.52 287.202C411.806 237.699 338.44 235.619 298.981 282.963L276.16 310.343C238.305 355.762 165.279 341.889 146.716 285.752V285.752C128.811 231.603 59.5744 216.196 20.3963 257.643L-8.83836 288.571C-55.9118 338.371 -137.889 327.679 -170.615 267.472L-235.592 147.931" stroke="#FF0088" stroke-opacity="0.25" stroke-width="2"/>
<path d="M759.997 248.085L601.826 339.04C552.746 367.264 490.307 354.256 456.58 308.781L444.147 292.016C407.433 242.514 334.067 240.434 294.608 287.777L271.787 315.157C233.932 360.576 160.906 346.703 142.343 290.567V290.567C124.438 236.417 55.2013 221.011 16.0232 262.458L-13.2114 293.386C-60.2848 343.185 -142.262 332.494 -174.988 272.286L-239.965 152.745" stroke="#FF0088" stroke-opacity="0.25" stroke-width="2"/>
<path d="M755.625 252.897L597.454 343.853C548.374 372.077 485.935 359.069 452.208 313.593L439.775 296.829C403.061 247.326 329.695 245.246 290.236 292.59L267.415 319.97C229.56 365.389 156.534 351.516 137.971 295.379V295.379C120.066 241.23 50.8293 225.823 11.6512 267.27L-17.5835 298.198C-64.6569 347.998 -146.634 337.306 -179.36 277.099L-244.337 157.558" stroke="#FF0088" stroke-opacity="0.25" stroke-width="2"/>
<path d="M751.253 257.708L593.082 348.664C544.002 376.887 481.563 363.879 447.836 318.404L435.403 301.639C398.689 252.137 325.323 250.057 285.864 297.4L263.043 324.781C225.188 370.199 152.162 356.326 133.599 300.19V300.19C115.694 246.04 46.4572 230.634 7.2791 272.081L-21.9555 303.009C-69.029 352.808 -151.006 342.117 -183.732 281.909L-248.709 162.369" stroke="#FF0088" stroke-opacity="0.25" stroke-width="2"/>
<path d="M746.879 262.524L588.708 353.48C539.628 381.704 477.189 368.696 443.462 323.22L431.029 306.456C394.315 256.953 320.949 254.873 281.49 302.217L258.669 329.597C220.814 375.016 147.788 361.143 129.225 305.006V305.006C111.32 250.857 42.0832 235.45 2.90508 276.897L-26.3296 307.825C-73.403 357.625 -155.38 346.933 -188.106 286.726L-253.083 167.185" stroke="#FF0088" stroke-opacity="0.25" stroke-width="2"/>
<path d="M742.508 267.337L584.337 358.292C535.257 386.516 472.818 373.508 439.091 328.033L426.658 311.268C389.944 261.766 316.578 259.686 277.119 307.029L254.298 334.409C216.443 379.828 143.417 365.955 124.854 309.819V309.819C106.948 255.669 37.7121 240.263 -1.46601 281.71L-30.7007 312.638C-77.7741 362.437 -159.751 351.746 -192.477 291.538L-257.454 171.997" stroke="#FF0088" stroke-opacity="0.25" stroke-width="2"/>
<path d="M738.135 272.149L579.964 363.105C530.883 391.329 468.445 378.321 434.718 332.845L422.285 316.081C385.571 266.578 312.205 264.498 272.746 311.842L249.925 339.222C212.07 384.641 139.044 370.768 120.481 314.631V314.631C102.575 260.482 33.339 245.075 -5.83906 286.522L-35.0737 317.45C-82.1472 367.25 -164.124 356.558 -196.85 296.351L-261.827 176.81" stroke="#FF0088" stroke-opacity="0.25" stroke-width="2"/>
<path d="M733.762 276.964L575.591 367.919C526.51 396.143 464.072 383.135 430.345 337.66L417.912 320.895C381.198 271.393 307.832 269.313 268.373 316.656L245.552 344.036C207.697 389.455 134.671 375.582 116.108 319.446V319.446C98.2024 265.296 28.966 249.89 -10.2121 291.337L-39.4468 322.264C-86.5202 372.064 -168.497 361.373 -201.223 301.165L-266.2 181.624" stroke="#FF0088" stroke-opacity="0.25" stroke-width="2"/>
<path d="M729.39 281.776L571.219 372.732C522.138 400.956 459.7 387.948 425.973 342.472L413.54 325.708C376.826 276.205 303.46 274.125 264.001 321.468L241.18 348.849C203.325 394.268 130.299 380.395 111.736 324.258V324.258C93.8303 270.109 24.5939 254.702 -14.5842 296.149L-43.8188 327.077C-90.8923 376.877 -172.869 366.185 -205.595 305.978L-270.573 186.437" stroke="#FF0088" stroke-opacity="0.25" stroke-width="2"/>
<path d="M725.018 286.589L566.847 377.544C517.766 405.768 455.328 392.76 421.601 347.285L409.167 330.52C372.454 281.018 299.088 278.938 259.628 326.281L236.808 353.661C198.953 399.08 125.926 385.207 107.364 329.071V329.071C89.4582 274.921 20.2218 259.515 -18.9562 300.962L-48.1909 331.889C-95.2643 381.689 -177.241 370.998 -209.968 310.79L-274.945 191.249" stroke="#FF0088" stroke-opacity="0.25" stroke-width="2"/>
<path d="M720.645 291.403L562.474 382.359C513.393 410.583 450.955 397.574 417.228 352.099L404.794 335.335C368.081 285.832 294.714 283.752 255.255 331.095L232.435 358.476C194.58 403.895 121.553 390.022 102.991 333.885V333.885C85.0852 279.736 15.8488 264.329 -23.3293 305.776L-52.5639 336.704C-99.6374 386.504 -181.615 375.812 -214.341 315.605L-279.318 196.064" stroke="#FF0088" stroke-opacity="0.25" stroke-width="2"/>
<path d="M716.274 296.216L558.103 387.171C509.022 415.395 446.583 402.387 412.857 356.912L400.423 340.147C363.71 290.645 290.343 288.565 250.884 335.908L228.064 363.288C190.209 408.707 117.182 394.834 98.6197 338.698V338.698C80.7141 284.548 11.4777 269.141 -27.7004 310.589L-56.935 341.516C-104.008 391.316 -185.986 380.624 -218.712 320.417L-283.689 200.876" stroke="#FF0088" stroke-opacity="0.25" stroke-width="2"/>
<path d="M711.901 301.028L553.73 391.984C504.649 420.208 442.21 407.199 408.484 361.724L396.05 344.96C359.337 295.457 285.97 293.377 246.511 340.72L223.691 368.101C185.835 413.52 112.809 399.647 94.2467 343.51V343.51C76.341 289.361 7.10465 273.954 -32.0734 315.401L-61.3081 346.329C-108.382 396.129 -190.359 385.437 -223.085 325.23L-288.062 205.689" stroke="#FF0088" stroke-opacity="0.25" stroke-width="2"/>
<path d="M707.529 305.843L549.358 396.798C500.277 425.022 437.838 412.014 404.112 366.539L391.678 349.774C354.965 300.271 281.598 298.192 242.139 345.535L219.319 372.915C181.463 418.334 108.437 404.461 89.8746 348.325V348.325C71.969 294.175 2.73258 278.768 -36.4455 320.216L-65.6802 351.143C-112.754 400.943 -194.731 390.251 -227.457 330.044L-292.434 210.503" stroke="#FF0088" stroke-opacity="0.25" stroke-width="2"/>
<path d="M703.156 310.655L544.985 401.611C495.904 429.834 433.465 416.826 399.739 371.351L387.305 354.587C350.592 305.084 277.225 303.004 237.766 350.347L214.945 377.728C177.09 423.147 104.064 409.274 85.5015 353.137V353.137C67.5959 298.988 -1.64047 283.581 -40.8186 325.028L-70.0532 355.956C-117.127 405.756 -199.104 395.064 -231.83 334.857L-296.807 215.316" stroke="#FF0088" stroke-opacity="0.25" stroke-width="2"/>
<path d="M698.782 315.468L540.612 406.423C491.531 434.647 429.092 421.639 395.366 376.164L382.932 359.399C346.219 309.896 272.852 307.817 233.393 355.16L210.572 382.54C172.717 427.959 99.6911 414.086 81.1285 357.95V357.95C63.2229 303.8 -6.01351 288.393 -45.1916 329.841L-74.4262 360.768C-121.5 410.568 -203.477 399.876 -236.203 339.669L-301.18 220.128" stroke="#FF0088" stroke-opacity="0.25" stroke-width="2"/>
<path d="M694.411 320.284L536.24 411.24C487.16 439.463 424.721 426.455 390.994 380.98L378.561 364.215C341.847 314.713 268.481 312.633 229.022 359.976L206.201 387.357C168.346 432.775 95.32 418.903 76.7574 362.766V362.766C58.8518 308.617 -10.3846 293.21 -49.5627 334.657L-78.7973 365.585C-125.871 415.385 -207.848 404.693 -240.574 344.485L-305.551 224.945" stroke="#FF0088" stroke-opacity="0.25" stroke-width="2"/>
<path d="M690.038 325.096L531.867 416.052C482.787 444.276 420.348 431.268 386.621 385.793L374.188 369.028C337.474 319.525 264.108 317.446 224.649 364.789L201.828 392.169C163.973 437.588 90.947 423.715 72.3844 367.579V367.579C54.4787 313.429 -14.7577 298.022 -53.9357 339.469L-83.1704 370.397C-130.244 420.197 -212.221 409.505 -244.947 349.298L-309.924 229.757" stroke="#FF0088" stroke-opacity="0.25" stroke-width="2"/>
<path d="M685.666 329.907L527.495 420.863C478.415 449.086 415.976 436.078 382.249 390.603L369.816 373.839C333.102 324.336 259.736 322.256 220.277 369.599L197.456 396.98C159.601 442.398 86.5749 428.526 68.0123 372.389V372.389C50.1067 318.24 -19.1297 302.833 -58.3078 344.28L-87.5425 375.208C-134.616 425.008 -216.593 414.316 -249.319 354.109L-314.296 234.568" stroke="#FF0088" stroke-opacity="0.25" stroke-width="2"/>
</svg>
