<svg width="1600" height="2605" viewBox="0 0 1600 2605" fill="none" xmlns="http://www.w3.org/2000/svg">
<path d="M1897.79 1578.83L1728.66 1276.3C1644.28 1125.36 1429.75 1118.06 1335.3 1262.92L1231.73 1421.79C1150.3 1546.67 957.41 1502.43 938.549 1354.55V1354.55C918.042 1193.76 699.089 1161.59 633.2 1309.68L602.771 1378.07C535.727 1528.76 314.223 1502.15 284.778 1339.87V1339.87C256.632 1184.75 49.3437 1150.79 -26.8269 1288.82L-381.027 1930.68" stroke="#FF0088" stroke-opacity="0.25" stroke-width="2"/>
<path d="M1823.96 1127.87L1654.84 825.338C1570.46 674.395 1355.92 667.096 1261.48 811.956L1157.9 970.824C1076.48 1095.71 883.587 1051.47 864.726 903.584V903.584C844.219 742.797 625.266 710.627 559.377 858.721L528.947 927.114C461.904 1077.8 240.4 1051.19 210.955 888.911V888.911C182.809 733.791 -24.4796 699.833 -100.65 837.863L-454.851 1479.72" stroke="#FF0088" stroke-opacity="0.25" stroke-width="2"/>
<path d="M1894.27 1557.36L1725.15 1254.83C1640.77 1103.88 1426.23 1096.59 1331.79 1241.45L1228.21 1400.31C1146.79 1525.2 953.893 1480.96 935.032 1333.07V1333.07C914.526 1172.29 695.573 1140.12 629.683 1288.21L599.254 1356.6C532.211 1507.29 310.706 1480.68 281.262 1318.4V1318.4C253.116 1163.28 45.827 1129.32 -30.3435 1267.35L-384.544 1909.21" stroke="#FF0088" stroke-opacity="0.25" stroke-width="2"/>
<path d="M1890.76 1535.88L1721.63 1233.35C1637.25 1082.41 1422.72 1075.11 1328.27 1219.97L1224.7 1378.84C1143.28 1503.72 950.381 1459.48 931.519 1311.6V1311.6C911.013 1150.81 692.06 1118.64 626.171 1266.73L595.741 1335.13C528.698 1485.81 307.194 1459.2 277.749 1296.92V1296.92C249.603 1141.8 42.3144 1107.85 -33.8562 1245.88L-388.057 1887.73" stroke="#FF0088" stroke-opacity="0.25" stroke-width="2"/>
<path d="M1887.24 1514.41L1718.12 1211.88C1633.74 1060.93 1419.2 1053.63 1324.76 1198.49L1221.18 1357.36C1139.76 1482.25 946.865 1438.01 928.004 1290.12V1290.12C907.497 1129.34 688.545 1097.17 622.655 1245.26L592.226 1313.65C525.182 1464.34 303.678 1437.73 274.233 1275.45V1275.45C246.087 1120.33 38.7987 1086.37 -37.3718 1224.4L-391.572 1866.26" stroke="#FF0088" stroke-opacity="0.25" stroke-width="2"/>
<path d="M1883.72 1492.93L1714.6 1190.4C1630.22 1039.46 1415.69 1032.16 1321.24 1177.02L1217.67 1335.89C1136.24 1460.77 943.349 1416.53 924.488 1268.65V1268.65C903.982 1107.86 685.029 1075.69 619.139 1223.78L588.71 1292.18C521.667 1442.86 300.163 1416.25 270.718 1253.97V1253.97C242.572 1098.85 35.2831 1064.9 -40.8874 1202.93L-395.088 1844.78" stroke="#FF0088" stroke-opacity="0.25" stroke-width="2"/>
<path d="M1880.21 1471.46L1711.09 1168.93C1626.71 1017.99 1412.17 1010.69 1317.73 1155.55L1214.15 1314.42C1132.73 1439.3 939.833 1395.06 920.972 1247.18V1247.18C900.465 1086.39 681.512 1054.22 615.623 1202.31L585.194 1270.7C518.15 1421.39 296.646 1394.78 267.201 1232.5V1232.5C239.055 1077.38 31.7665 1043.42 -44.404 1181.45L-398.605 1823.31" stroke="#FF0088" stroke-opacity="0.25" stroke-width="2"/>
<path d="M1876.69 1449.99L1707.57 1147.45C1623.19 996.51 1408.66 989.212 1314.21 1134.07L1210.64 1292.94C1129.21 1417.82 936.319 1373.58 917.458 1225.7V1225.7C896.951 1064.91 677.999 1032.74 612.109 1180.84L581.68 1249.23C514.636 1399.92 293.132 1373.3 263.687 1211.03V1211.03C235.542 1055.91 28.2528 1021.95 -47.9177 1159.98L-402.118 1801.83" stroke="#FF0088" stroke-opacity="0.25" stroke-width="2"/>
<path d="M1873.18 1428.51L1704.06 1125.98C1619.68 975.037 1405.14 967.739 1310.7 1112.6L1207.12 1271.47C1125.7 1396.35 932.803 1352.11 913.942 1204.23V1204.23C893.436 1043.44 674.483 1011.27 608.594 1159.36L578.164 1227.76C511.121 1378.44 289.617 1351.83 260.172 1189.55V1189.55C232.026 1034.43 24.7372 1000.48 -51.4333 1138.51L-405.634 1780.36" stroke="#FF0088" stroke-opacity="0.25" stroke-width="2"/>
<path d="M1869.66 1407.04L1700.54 1104.51C1616.16 953.562 1401.63 946.263 1307.18 1091.12L1203.6 1249.99C1122.18 1374.88 929.289 1330.64 910.428 1182.75V1182.75C889.921 1021.96 670.968 989.794 605.079 1137.89L574.65 1206.28C507.606 1356.97 286.102 1330.36 256.657 1168.08V1168.08C228.511 1012.96 21.2226 979 -54.948 1117.03L-409.149 1758.88" stroke="#FF0088" stroke-opacity="0.25" stroke-width="2"/>
<path d="M1866.15 1385.56L1697.02 1083.03C1612.64 932.086 1398.11 924.788 1303.66 1069.65L1200.09 1228.52C1118.67 1353.4 925.771 1309.16 906.91 1161.28V1161.28C886.403 1000.49 667.451 968.319 601.561 1116.41L571.132 1184.81C504.089 1335.49 282.584 1308.88 253.14 1146.6V1146.6C224.994 991.483 17.705 957.524 -58.4656 1095.55L-412.666 1737.41" stroke="#FF0088" stroke-opacity="0.25" stroke-width="2"/>
<path d="M1862.63 1364.09L1693.51 1061.56C1609.13 910.615 1394.59 903.316 1300.15 1048.18L1196.57 1207.04C1115.15 1331.93 922.256 1287.69 903.394 1139.8V1139.8C882.888 979.017 663.935 946.847 598.046 1094.94L567.616 1163.33C500.573 1314.02 279.069 1287.41 249.624 1125.13V1125.13C221.478 970.011 14.1894 936.052 -61.9812 1074.08L-416.182 1715.94" stroke="#FF0088" stroke-opacity="0.25" stroke-width="2"/>
<path d="M1859.12 1342.61L1689.99 1040.08C1605.61 889.138 1391.08 881.839 1296.63 1026.7L1193.06 1185.57C1111.64 1310.45 918.742 1266.21 899.881 1118.33V1118.33C879.374 957.54 660.422 925.371 594.532 1073.46L564.103 1141.86C497.059 1292.54 275.555 1265.93 246.11 1103.65V1103.65C217.964 948.534 10.6757 914.576 -65.4949 1052.61L-419.695 1694.46" stroke="#FF0088" stroke-opacity="0.25" stroke-width="2"/>
<path d="M1855.6 1321.14L1686.48 1018.61C1602.1 867.664 1387.56 860.366 1293.12 1005.23L1189.54 1164.09C1108.12 1288.98 915.225 1244.74 896.364 1096.85V1096.85C875.858 936.067 656.905 903.897 591.015 1051.99L560.586 1120.38C493.543 1271.07 272.039 1244.46 242.594 1082.18V1082.18C214.448 927.061 7.15908 893.102 -69.0115 1031.13L-423.212 1672.99" stroke="#FF0088" stroke-opacity="0.25" stroke-width="2"/>
<path d="M1852.09 1299.67L1682.96 997.134C1598.58 846.191 1384.05 838.892 1289.6 983.752L1186.03 1142.62C1104.61 1267.51 911.711 1223.27 892.85 1075.38V1075.38C872.343 914.593 653.39 882.423 587.501 1030.52L557.071 1098.91C490.028 1249.6 268.524 1222.99 239.079 1060.71V1060.71C210.933 905.587 3.64443 871.629 -72.5261 1009.66L-426.727 1651.51" stroke="#FF0088" stroke-opacity="0.25" stroke-width="2"/>
<path d="M1848.57 1278.19L1679.45 975.66C1595.07 824.716 1380.53 817.418 1286.09 962.278L1182.51 1121.15C1101.09 1246.03 908.194 1201.79 889.333 1053.91V1053.91C868.826 893.119 649.874 860.949 583.984 1009.04L553.555 1077.43C486.511 1228.12 265.007 1201.51 235.562 1039.23V1039.23C207.417 884.113 0.12783 850.154 -76.0427 988.184L-430.243 1630.04" stroke="#FF0088" stroke-opacity="0.25" stroke-width="2"/>
<path d="M1845.05 1256.72L1675.93 954.186C1591.55 803.242 1377.02 795.944 1282.57 940.804L1179 1099.67C1097.57 1224.56 904.679 1180.32 885.818 1032.43V1032.43C865.312 871.645 646.359 839.475 580.47 987.568L550.04 1055.96C482.997 1206.65 261.493 1180.04 232.048 1017.76V1017.76C203.902 862.639 -3.38682 828.68 -79.5574 966.711L-433.758 1608.56" stroke="#FF0088" stroke-opacity="0.25" stroke-width="2"/>
<path d="M1841.54 1235.24L1672.42 932.71C1588.04 781.767 1373.5 774.468 1279.06 919.328L1175.48 1078.2C1094.06 1203.08 901.164 1158.84 882.303 1010.96V1010.96C861.796 850.169 642.843 817.999 576.954 966.093L546.525 1034.49C479.481 1185.17 257.977 1158.56 228.532 996.283V996.283C200.386 841.163 -6.90244 807.205 -83.073 945.235L-437.274 1587.09" stroke="#FF0088" stroke-opacity="0.25" stroke-width="2"/>
<path d="M1838.02 1213.77L1668.9 911.236C1584.52 760.292 1369.98 752.994 1275.54 897.854L1171.96 1056.72C1090.54 1181.61 897.647 1137.37 878.786 989.482V989.482C858.279 828.695 639.327 796.525 573.437 944.618L543.008 1013.01C475.965 1163.7 254.46 1137.09 225.016 974.808V974.808C196.87 819.689 -10.419 785.73 -86.5896 923.76L-440.79 1565.61" stroke="#FF0088" stroke-opacity="0.25" stroke-width="2"/>
<path d="M1834.51 1192.29L1665.39 889.76C1581.01 738.817 1366.47 731.518 1272.03 876.378L1168.45 1035.25C1087.03 1160.13 894.134 1115.89 875.272 968.006V968.006C854.766 807.219 635.813 775.049 569.924 923.142L539.494 991.536C472.451 1142.22 250.947 1115.61 221.502 953.333V953.333C193.356 798.213 -13.9327 764.255 -90.1033 902.285L-444.304 1544.14" stroke="#FF0088" stroke-opacity="0.25" stroke-width="2"/>
<path d="M1830.99 1170.82L1661.87 868.289C1577.49 717.345 1362.95 710.046 1268.51 854.906L1164.93 1013.77C1083.51 1138.66 890.615 1094.42 871.754 946.535V946.535C851.247 785.747 632.295 753.578 566.405 901.671L535.976 970.064C468.932 1120.75 247.428 1094.14 217.983 931.861V931.861C189.837 776.741 -17.4513 742.783 -93.6218 880.813L-447.822 1522.67" stroke="#FF0088" stroke-opacity="0.25" stroke-width="2"/>
<path d="M1827.48 1149.35L1658.36 846.813C1573.98 695.869 1359.44 688.571 1265 833.431L1161.42 992.299C1080 1117.18 887.103 1072.94 868.242 925.059V925.059C847.735 764.272 628.783 732.102 562.893 880.195L532.464 948.588C465.421 1099.28 243.916 1072.66 214.472 910.386V910.386C186.326 755.266 -20.963 721.307 -97.1335 859.338L-451.334 1501.19" stroke="#FF0088" stroke-opacity="0.25" stroke-width="2"/>
</svg>
