<svg width="1600" height="2273" viewBox="0 0 1600 2273" fill="none" xmlns="http://www.w3.org/2000/svg">
<path d="M-1216.66 920.981L-593.18 1279.51C-399.713 1390.77 -153.591 1339.49 -20.6461 1160.23L28.3643 1094.15C173.083 899.021 462.281 890.822 617.821 1077.44L707.776 1185.37C856.995 1364.4 1144.85 1309.72 1218.02 1088.44V1088.44C1288.6 874.99 1561.52 814.259 1715.95 977.637L1831.19 1099.55C2016.75 1295.85 2339.89 1253.71 2468.89 1016.38L2725.02 545.17" stroke="#FF0088" stroke-opacity="0.25" stroke-width="2"/>
<path d="M-854.721 1319.41L-231.238 1677.94C-37.7711 1789.2 208.351 1737.92 341.295 1558.67L390.306 1492.58C535.024 1297.45 824.222 1289.25 979.763 1475.87L1069.72 1583.8C1218.94 1762.83 1506.79 1708.15 1579.96 1486.87V1486.87C1650.54 1273.42 1923.46 1212.69 2077.9 1376.07L2193.13 1497.98C2378.69 1694.28 2701.83 1652.14 2830.83 1414.81L3086.96 943.602" stroke="#FF0088" stroke-opacity="0.25" stroke-width="2"/>
<path d="M-1199.43 939.952L-575.945 1298.48C-382.478 1409.74 -136.356 1358.46 -3.41171 1179.21L45.5987 1113.12C190.317 917.993 479.515 909.794 635.056 1096.41L725.011 1204.34C874.229 1383.37 1162.09 1328.69 1235.26 1107.41V1107.41C1305.84 893.961 1578.76 833.231 1733.19 996.609L1848.43 1118.52C2033.98 1314.82 2357.12 1272.68 2486.12 1035.35L2742.25 564.142" stroke="#FF0088" stroke-opacity="0.25" stroke-width="2"/>
<path d="M-1182.19 958.927L-558.711 1317.46C-365.244 1428.71 -119.122 1377.44 13.8227 1198.18L62.833 1132.1C207.552 936.967 496.749 928.769 652.29 1115.39L742.245 1223.32C891.464 1402.35 1179.32 1347.66 1252.49 1126.38V1126.38C1323.07 912.936 1595.99 852.206 1750.42 1015.58L1865.66 1137.49C2051.22 1333.8 2374.36 1291.65 2503.36 1054.33L2759.48 583.116" stroke="#FF0088" stroke-opacity="0.25" stroke-width="2"/>
<path d="M-1164.96 977.901L-541.476 1336.43C-348.008 1447.69 -101.887 1396.41 31.058 1217.15L80.0684 1151.07C224.787 955.941 513.985 947.742 669.525 1134.36L759.48 1242.29C908.699 1421.32 1196.56 1366.64 1269.73 1145.36V1145.36C1340.31 931.91 1613.22 871.179 1767.66 1034.56L1882.9 1156.47C2068.45 1352.77 2391.59 1310.63 2520.59 1073.3L2776.72 602.09" stroke="#FF0088" stroke-opacity="0.25" stroke-width="2"/>
<path d="M-1147.72 996.873L-524.24 1355.41C-330.773 1466.66 -84.6513 1415.38 48.2934 1236.13L97.3037 1170.04C242.022 974.914 531.22 966.715 686.761 1153.33L776.716 1261.26C925.934 1440.3 1213.79 1385.61 1286.96 1164.33V1164.33C1357.54 950.882 1630.46 890.152 1784.89 1053.53L1900.13 1175.44C2085.69 1371.74 2408.83 1329.6 2537.83 1092.27L2793.95 621.063" stroke="#FF0088" stroke-opacity="0.25" stroke-width="2"/>
<path d="M-1130.49 1015.84L-507.006 1374.38C-313.539 1485.63 -67.4169 1434.35 65.5277 1255.1L114.538 1189.02C259.257 993.885 548.454 985.687 703.995 1172.31L793.95 1280.23C943.169 1459.27 1231.03 1404.58 1304.2 1183.3V1183.3C1374.78 969.854 1647.69 909.124 1802.13 1072.5L1917.37 1194.41C2102.92 1390.71 2426.06 1348.57 2555.06 1111.24L2811.19 640.034" stroke="#FF0088" stroke-opacity="0.25" stroke-width="2"/>
<path d="M-1113.25 1034.82L-489.768 1393.35C-296.3 1504.6 -50.1787 1453.33 82.766 1274.07L131.776 1207.99C276.495 1012.86 565.693 1004.66 721.233 1191.28L811.188 1299.21C960.407 1478.24 1248.26 1423.56 1321.43 1202.28V1202.28C1392.01 988.828 1664.93 928.097 1819.37 1091.47L1934.6 1213.39C2120.16 1409.69 2443.3 1367.54 2572.3 1130.22L2828.43 659.008" stroke="#FF0088" stroke-opacity="0.25" stroke-width="2"/>
<path d="M-1096.02 1053.79L-472.536 1412.32C-279.069 1523.57 -32.9472 1472.3 99.9975 1293.04L149.008 1226.96C293.726 1031.83 582.924 1023.63 738.465 1210.25L828.42 1318.18C977.638 1497.21 1265.49 1442.53 1338.67 1221.25V1221.25C1409.25 1007.8 1682.16 947.069 1836.6 1110.45L1951.84 1232.36C2137.39 1428.66 2460.53 1386.52 2589.53 1149.19L2845.66 677.98" stroke="#FF0088" stroke-opacity="0.25" stroke-width="2"/>
<path d="M-1078.78 1072.76L-455.299 1431.29C-261.832 1542.55 -15.7099 1491.27 117.235 1312.02L166.245 1245.93C310.964 1050.8 600.161 1042.6 755.702 1229.22L845.657 1337.15C994.876 1516.18 1282.73 1461.5 1355.9 1240.22V1240.22C1426.48 1026.77 1699.4 966.042 1853.83 1129.42L1969.07 1251.33C2154.63 1447.63 2477.77 1405.49 2606.77 1168.16L2862.9 696.952" stroke="#FF0088" stroke-opacity="0.25" stroke-width="2"/>
<path d="M-1061.54 1091.74L-438.062 1450.27C-244.594 1561.52 1.5274 1510.25 134.472 1330.99L183.482 1264.91C328.201 1069.78 617.399 1061.58 772.939 1248.2L862.895 1356.13C1012.11 1535.16 1299.97 1480.48 1373.14 1259.2V1259.2C1443.72 1045.75 1716.64 985.017 1871.07 1148.39L1986.31 1270.31C2171.87 1466.61 2495 1424.46 2624.01 1187.14L2880.13 715.928" stroke="#FF0088" stroke-opacity="0.25" stroke-width="2"/>
<path d="M-1044.31 1110.71L-420.828 1469.24C-227.361 1580.49 18.7608 1529.22 151.705 1349.96L200.716 1283.88C345.434 1088.75 634.632 1080.55 790.173 1267.17L880.128 1375.1C1029.35 1554.13 1317.2 1499.45 1390.37 1278.17V1278.17C1460.95 1064.72 1733.87 1003.99 1888.31 1167.37L2003.54 1289.28C2189.1 1485.58 2512.24 1443.44 2641.24 1206.11L2897.37 734.899" stroke="#FF0088" stroke-opacity="0.25" stroke-width="2"/>
<path d="M-1027.07 1129.68L-403.592 1488.21C-210.125 1599.47 35.9971 1548.19 168.942 1368.94L217.952 1302.85C362.671 1107.72 651.868 1099.52 807.409 1286.14L897.364 1394.07C1046.58 1573.1 1334.44 1518.42 1407.61 1297.14V1297.14C1478.19 1083.69 1751.11 1022.96 1905.54 1186.34L2020.78 1308.25C2206.33 1504.55 2529.47 1462.41 2658.47 1225.08L2914.6 753.872" stroke="#FF0088" stroke-opacity="0.25" stroke-width="2"/>
<path d="M-1009.84 1148.66L-386.358 1507.19C-192.89 1618.44 53.2315 1567.17 186.176 1387.91L235.187 1321.83C379.905 1126.7 669.103 1118.5 824.644 1305.12L914.599 1413.05C1063.82 1592.08 1351.67 1537.39 1424.84 1316.11V1316.11C1495.43 1102.67 1768.34 1041.94 1922.78 1205.31L2038.01 1327.22C2223.57 1523.53 2546.71 1481.38 2675.71 1244.05L2931.84 772.846" stroke="#FF0088" stroke-opacity="0.25" stroke-width="2"/>
<path d="M-992.606 1167.63L-369.123 1526.16C-175.656 1637.41 70.4659 1586.14 203.411 1406.88L252.421 1340.8C397.139 1145.67 686.337 1137.47 841.878 1324.09L931.833 1432.02C1081.05 1611.05 1368.91 1556.37 1442.08 1335.09V1335.09C1512.66 1121.64 1785.58 1060.91 1940.01 1224.28L2055.25 1346.2C2240.8 1542.5 2563.94 1500.35 2692.94 1263.03L2949.07 791.817" stroke="#FF0088" stroke-opacity="0.25" stroke-width="2"/>
<path d="M-975.368 1186.6L-351.886 1545.13C-158.419 1656.39 87.7032 1605.11 220.648 1425.85L269.658 1359.77C414.377 1164.64 703.574 1156.44 859.115 1343.06L949.07 1450.99C1098.29 1630.02 1386.15 1575.34 1459.32 1354.06V1354.06C1529.9 1140.61 1802.81 1079.88 1957.25 1243.26L2072.49 1365.17C2258.04 1561.47 2581.18 1519.33 2710.18 1282L2966.31 810.79" stroke="#FF0088" stroke-opacity="0.25" stroke-width="2"/>
<path d="M-958.134 1205.57L-334.651 1564.1C-141.184 1675.36 104.938 1624.08 237.882 1444.83L286.893 1378.74C431.611 1183.61 720.809 1175.41 876.35 1362.03L966.305 1469.96C1115.52 1648.99 1403.38 1594.31 1476.55 1373.03V1373.03C1547.13 1159.58 1820.05 1098.85 1974.48 1262.23L2089.72 1384.14C2275.28 1580.44 2598.41 1538.3 2727.42 1300.97L2983.54 829.762" stroke="#FF0088" stroke-opacity="0.25" stroke-width="2"/>
<path d="M-940.898 1224.55L-317.415 1583.08C-123.948 1694.33 122.174 1643.06 255.119 1463.8L304.129 1397.72C448.847 1202.59 738.045 1194.39 893.586 1381.01L983.541 1488.93C1132.76 1667.97 1420.62 1613.28 1493.79 1392V1392C1564.37 1178.56 1837.29 1117.82 1991.72 1281.2L2106.96 1403.11C2292.51 1599.42 2615.65 1557.27 2744.65 1319.94L3000.78 848.735" stroke="#FF0088" stroke-opacity="0.25" stroke-width="2"/>
<path d="M-923.66 1243.52L-300.178 1602.05C-106.711 1713.31 139.411 1662.03 272.356 1482.77L321.366 1416.69C466.085 1221.56 755.282 1213.36 910.823 1399.98L1000.78 1507.91C1150 1686.94 1437.85 1632.26 1511.02 1410.98V1410.98C1581.6 1197.53 1854.52 1136.8 2008.96 1300.18L2124.19 1422.09C2309.75 1618.39 2632.89 1576.25 2761.89 1338.92L3018.02 867.71" stroke="#FF0088" stroke-opacity="0.25" stroke-width="2"/>
<path d="M-906.429 1262.49L-282.946 1621.03C-89.4791 1732.28 156.643 1681 289.587 1501.75L338.598 1435.66C483.316 1240.53 772.514 1232.34 928.055 1418.95L1018.01 1526.88C1167.23 1705.92 1455.08 1651.23 1528.26 1429.95V1429.95C1598.84 1216.5 1871.75 1155.77 2026.19 1319.15L2141.43 1441.06C2326.98 1637.36 2650.12 1595.22 2779.12 1357.89L3035.25 886.683" stroke="#FF0088" stroke-opacity="0.25" stroke-width="2"/>
<path d="M-889.19 1281.47L-265.707 1640C-72.2399 1751.25 173.882 1699.98 306.827 1520.72L355.837 1454.64C500.555 1259.51 789.753 1251.31 945.294 1437.93L1035.25 1545.85C1184.47 1724.89 1472.32 1670.2 1545.49 1448.92V1448.92C1616.08 1235.47 1888.99 1174.74 2043.43 1338.12L2158.66 1460.03C2344.22 1656.34 2667.36 1614.19 2796.36 1376.86L3052.49 905.655" stroke="#FF0088" stroke-opacity="0.25" stroke-width="2"/>
<path d="M-871.958 1300.44L-248.476 1658.97C-55.0084 1770.22 191.113 1718.95 324.058 1539.69L373.068 1473.61C517.787 1278.48 806.985 1270.28 962.525 1456.9L1052.48 1564.83C1201.7 1743.86 1489.56 1689.18 1562.73 1467.9V1467.9C1633.31 1254.45 1906.22 1193.72 2060.66 1357.09L2175.9 1479.01C2361.45 1675.31 2684.59 1633.16 2813.59 1395.84L3069.72 924.628" stroke="#FF0088" stroke-opacity="0.25" stroke-width="2"/>
</svg>
